<svg width="16" height="16" viewBox="0 0 16 16" xmlns="http://www.w3.org/2000/svg"><path fill="#4a148c" fill-rule="evenodd" clip-rule="evenodd" d="M 8.6 8.2 l -0.8 -0.8 L 6.2 9 L 4.6 7.4 l -0.8 0.8 L 5.4 9.8 l -1.6 1.6 l 0.8 0.8 L 6.2 10.6 l 1.6 1.6 l 0.8 -0.8 L 7 9.8 l 1.6 -1.6 z"/><path fill="#4a148c" fill-rule="evenodd" clip-rule="evenodd" d="M 4.5 2.3 l 1.2 -1.2 h 8.1 l 1.2 1.2 v 8.2 l -1.2 1.2 h -2.3 v 2.3 l -1.2 1.2 H 2.2 l -1.2 -1.2 V 5.8 l 1.2 -1.2 h 2.3 V 2.3 z m 1.2 2.3 h 4.6 l 1.2 1.2 v 4.7 h 2.3 V 2.3 H 5.6 v 2.3 z m 4.6 1.2 H 2.2 v 8.2 h 8.1 V 5.8 z"/></svg>